<?xml version="1.0" encoding="utf-8"?>
<!-- Generator: Adobe Illustrator 26.5.0, SVG Export Plug-In . SVG Version: 6.00 Build 0)  -->
<svg version="1.1" id="Layer_1" xmlns="http://www.w3.org/2000/svg" xmlns:xlink="http://www.w3.org/1999/xlink" x="0px" y="0px"
	 viewBox="0 0 540 540" style="enable-background:new 0 0 540 540;" xml:space="preserve">
<style type="text/css">
	.st0{fill:#758AF2;}
	.st1{fill:#7F92EF;}
	.st2{fill:#4A1434;}
	.st3{fill:#C7D0F9;}
	.st4{fill:#6375F0;}
</style>
<g>
	<g>
		<path class="st0" d="M276.9,194.9v128.8c0,0,179.6,110.8,179.8,107.8c0.2-2.9-1.2-131.1-4.1-132.9
			C449.7,296.8,287.2,189.5,276.9,194.9z"/>
	</g>
	<g>
		<path class="st0" d="M162.2,391.6c0,0,107.1-74.6,117.3-70.5c10.3,4.1,127.2,64.1,125,70.5S270,474.8,268.2,473.4
			C266.5,472.1,162.2,391.6,162.2,391.6z"/>
	</g>
	<g>
		<polygon class="st1" points="97.1,432 99.5,298.6 276.9,407.6 276.9,537.5 		"/>
	</g>
	<g>
		<path class="st1" d="M452.6,298.6c0,0,5.8,125.3,4.1,132.9c-1.7,7.6-173.2,111.3-179.8,106.1c-6.6-5.2-3.1-129.8-3.1-129.8
			L452.6,298.6z"/>
	</g>
	<g>
		<path class="st0" d="M99.4,300.9c0-2.3,174.8-109.6,177.4-106.1c2.7,3.5,0,128.8,0,128.8s-98.8,51.8-98.4,49.9
			C178.9,371.1,99.4,300.9,99.4,300.9z"/>
	</g>
	<g>
		<path class="st1" d="M101.1,299.6c0,0-70.6-79.9-72.1-83.7c-1.6-4,0-6.5,0-6.5s160.8-91.4,174.2-90.2
			c13.4,1.2,71.1,71.7,70.5,76.9L101.1,299.6z"/>
		<path class="st2" d="M100.9,300.8l-0.5-0.6c-7.2-8.2-70.8-80.2-72.3-84c-1.7-4.4,0-7.3,0.1-7.4l0.1-0.2l0.2-0.1
			c6.6-3.7,161.3-91.6,174.8-90.4c11.4,1,47.4,44.5,51.5,49.5c4.8,5.8,20.3,25.1,19.9,28.5l-0.1,0.5l-0.4,0.3L100.9,300.8z
			 M29.7,210c-0.3,0.6-0.9,2.6,0.2,5.4c1.3,3,43.2,50.9,71.4,82.8l171.4-102.8c-2.5-7.4-56.5-74.3-69.5-75.4
			C192.8,119.2,85.3,178.4,29.7,210z"/>
	</g>
	<g>
		<path class="st1" d="M276.9,194.9c0,0,58.6-71.7,68.5-75.8c9.9-4.1,163.8,96.2,166.1,102.6c0,0,0.6,3.5,0,7.6
			c-0.6,4.1-57.1,69.3-58.9,69.3S276.9,194.9,276.9,194.9z"/>
		<path class="st2" d="M452.6,299.6c-1.8,0-111.2-65.1-176.3-103.9l-1-0.6l0.7-0.9c2.4-2.9,58.9-71.9,68.9-76.1
			c0.9-0.4,2.9-0.5,9.4,2.4c33.7,14.9,155.6,94.2,158,100.7c0.1,0.3,0.6,3.9,0.1,8.1c-0.4,2.7-18.5,24.2-29.2,36.7
			C470.2,281.4,454.2,299.6,452.6,299.6z M278.4,194.6c58.2,34.7,166.3,98.9,174.2,102.9c5.1-4.4,56.7-63.7,58-68.4
			c0.5-3.4,0.1-6.4,0-7.1c-1.9-3.1-36.3-27.1-80.2-55c-54-34.2-81.4-48.3-84.5-47C338.2,123.1,298.8,169.6,278.4,194.6z"/>
	</g>
	<g>
		<path class="st0" d="M276.9,407.6c0,0,59.8,4.7,65.6,0c5.8-4.7,163.8-97.9,165.5-101.4s1.2-8.2-4.1-7.6c-5.2,0.6-51.3,0-51.3,0
			S277.1,402.3,276.9,407.6z"/>
		<path class="st2" d="M322.3,410.6c-18,0-41.5-1.8-45.5-2.1l-1-0.1v-1c0.1-1.2,0.2-3.8,88.4-57.3c43.4-26.3,87.4-52.3,87.8-52.5
			l0.2-0.1h0.3c0.5,0,46,0.6,51.2,0c3-0.3,4.4,0.8,5.2,1.9c1.2,1.8,1.2,4.6-0.1,7.1c-1,2-31.4,20.5-103.8,64
			c-32,19.2-59.6,35.8-61.9,37.7C341,410.1,332.5,410.6,322.3,410.6z M278.9,406.7c23.9,1.8,59,3.2,63,0.1
			c2.4-1.9,30.1-18.6,62.2-37.8c42.6-25.6,100.9-60.6,103.1-63.3c0.9-1.8,1-3.8,0.2-5c-0.6-0.9-1.7-1.2-3.3-1
			c-5.1,0.6-46.9,0.1-51.1,0C387.2,338.4,290.4,396.8,278.9,406.7z"/>
	</g>
	<g>
		<path class="st1" d="M107.2,296.5c0,0-55.5,1.4-60.2,2s-5.2,4.1-4.7,7c0.6,2.9,165.5,102.6,170.8,104.1c5.2,1.4,63.8-2.1,63.8-2.1
			L107.2,296.5z"/>
		<path class="st2" d="M219.9,411c-3.6,0-6.1-0.1-7.1-0.4c-3.2-0.9-54-31.3-87.4-51.6c-83.6-50.7-84-52.6-84.1-53.2
			c-0.3-1.6-0.4-3.9,0.9-5.7c1-1.4,2.5-2.2,4.6-2.5c4.7-0.6,58-1.9,60.3-2h0.3l0.3,0.2l172.2,112.7l-3,0.2
			C275,408.7,236.5,411,219.9,411z M43.3,305.2c5.4,5.3,163.9,101.7,170.1,103.5c3.9,1.1,42.4-0.9,60.4-1.9L106.9,297.6
			c-4.5,0.1-55.4,1.4-59.8,2c-1.5,0.2-2.6,0.8-3.3,1.7C43.1,302.4,43.1,304,43.3,305.2z"/>
	</g>
	<g>
		<g>
			<path class="st2" d="M44.2,301.6c9.2,4.9,18.1,10.8,27,16.1c19,11.4,38.1,22.9,57.1,34.3c19.2,11.5,38.5,23.1,57.7,34.6
				c6.7,4,13.3,8,20,12c3,1.8,6.1,4.1,9.3,5.5c1.4,0.6,3.3,0.2,4.8,0.2c4.8-0.2,9.6-0.3,14.4-0.5c9.9-0.3,19.7-0.6,29.6-0.9
				c0.7,0,1.3,0,2-0.1c1.6,0,1.6-2.5,0-2.5c-7.7,0.2-15.3,0.5-23,0.7c-5.6,0.2-11.1,0.3-16.7,0.5c-2.1,0.1-4.2,0.1-6.3,0.2
				c-1,0-2.5-0.2-3.5,0.1c-0.7,0.2,0.4,0.5-0.1,0c-0.3-0.3-0.8-0.5-1.2-0.7c-1.6-1-3.3-1.9-4.9-2.9c-6-3.6-12-7.2-18-10.8
				c-18.6-11.2-37.2-22.3-55.8-33.5c-19.5-11.7-39-23.4-58.5-35.1c-10.6-6.4-21.1-13-31.9-19.1c-0.2-0.1-0.5-0.3-0.7-0.4
				C44.1,298.7,42.8,300.8,44.2,301.6L44.2,301.6z"/>
		</g>
	</g>
	<g>
		<g>
			<path class="st2" d="M214.2,409.6c0.7-2,1.5-4.1,2.2-6.1c0.2-0.6-0.2-1.4-0.9-1.5c-0.7-0.2-1.3,0.2-1.5,0.9
				c-0.7,2-1.5,4.1-2.2,6.1c-0.2,0.6,0.3,1.4,0.9,1.5C213.4,410.7,214,410.3,214.2,409.6L214.2,409.6z"/>
		</g>
	</g>
	<g>
		<g>
			<path class="st2" d="M283.4,403.8c10.4,0.7,20.8,1.2,31.3,1.3c5.1,0,10.1,0,15.2-0.1c2.1,0,5.1,0.4,7.1-0.4
				c2.3-0.9,4.5-2.7,6.6-4c12.3-7.5,24.6-14.9,37-22.4c17.4-10.6,34.9-21.1,52.3-31.7c16-9.7,32-19.4,48.1-29.1
				c5.4-3.3,10.9-6.6,16.3-9.9c2.6-1.6,5.3-3,7.8-4.7c0.1-0.1,0.2-0.1,0.4-0.2c1.4-0.8,0.1-3-1.3-2.2c-6.5,4-13.1,7.9-19.6,11.9
				c-15.3,9.3-30.6,18.5-45.8,27.8c-17.6,10.6-35.1,21.3-52.7,31.9c-13.4,8.1-26.8,16.3-40.3,24.4c-3.1,1.9-6.2,3.7-9.2,5.6
				c-0.2,0.1-0.5,0.4-0.8,0.5l-0.1,0.1c-0.4,0.1-1.3-0.1-1.8-0.1c-1.5,0-2.9,0.1-4.4,0.1c-10.3,0.2-20.6,0.1-30.8-0.3
				c-5.1-0.2-10.1-0.5-15.1-0.9C281.8,401.2,281.8,403.7,283.4,403.8L283.4,403.8z"/>
		</g>
	</g>
	<g>
		<g>
			<path class="st2" d="M30.8,209.1c2.4,3.5,5.5,6.6,8.2,9.9c5.7,6.7,11.5,13.5,17.2,20.2c12.9,15,25.8,30,38.8,45
				c3.4,3.9,6.7,7.9,10.2,11.7c1.1,1.2,2.8-0.6,1.8-1.8c-8.7-9.7-17.1-19.7-25.6-29.5c-12.9-14.9-25.8-29.9-38.6-44.9
				c-3.2-3.8-7.3-8.2-9.9-11.8C32,206.6,29.9,207.8,30.8,209.1L30.8,209.1z"/>
		</g>
	</g>
	<g>
		<g>
			<path class="st2" d="M447.1,295.3c20-24.8,40.9-48.8,62.8-71.9c1.1-1.2-0.7-2.9-1.8-1.8c-21.9,23.1-42.9,47.1-62.8,71.9
				C444.4,294.8,446.1,296.6,447.1,295.3L447.1,295.3z"/>
		</g>
	</g>
	<g>
		<g>
			<path class="st2" d="M205.8,361.7c24.2-13.2,48.4-26.4,72.6-39.6c1.4-0.8,0.2-2.9-1.3-2.2c-24.2,13.2-48.4,26.4-72.6,39.6
				C203.1,360.3,204.4,362.5,205.8,361.7L205.8,361.7z"/>
		</g>
	</g>
	<g>
		<g>
			<path class="st2" d="M277.1,322c23.8,12.2,47,25.6,70.9,37.9c1.4,0.7,2.7-1.4,1.3-2.2c-23.8-12.2-47-25.6-70.9-37.9
				C276.9,319.2,275.7,321.3,277.1,322L277.1,322z"/>
		</g>
	</g>
	<g>
		<g>
			<path class="st2" d="M278.6,321.9c1.5-33,1.2-66-1-98.9c-0.6-9.3-1.4-18.7-2.3-28c-0.2-1.6-2.7-1.6-2.5,0
				c3.2,32.8,4.6,65.8,4.2,98.8c-0.1,9.4-0.4,18.7-0.8,28C276,323.5,278.5,323.5,278.6,321.9L278.6,321.9z"/>
		</g>
	</g>
	<g>
		<g>
			<path class="st2" d="M278.7,538.8c0-34.4-0.3-68.8-0.5-103.2c0-9.3-0.1-18.7-0.1-28c0-1.6-2.5-1.6-2.5,0
				c0,34.4,0.3,68.8,0.5,103.2c0,9.3,0.1,18.7,0.1,28C276.2,540.4,278.7,540.4,278.7,538.8L278.7,538.8z"/>
		</g>
	</g>
	<g>
		<g>
			<path class="st2" d="M335.8,404.1c0.7,1.8,1.8,3.5,3.3,4.7c0.3,0.2,0.5,0.4,0.9,0.4c0.3,0,0.7-0.1,0.9-0.4c0.4-0.5,0.5-1.3,0-1.8
				c-0.3-0.3-0.6-0.5-0.9-0.8c-0.1-0.1-0.3-0.3-0.4-0.4s-0.1-0.2-0.2-0.2c0,0-0.1-0.2,0,0s0,0,0,0c-0.5-0.6-0.9-1.3-1.2-2.1
				c0,0.1,0.1,0.2,0.1,0.3c0-0.1-0.1-0.2-0.1-0.3c-0.1-0.3-0.3-0.6-0.6-0.7c-0.3-0.2-0.7-0.2-1-0.1
				C336.1,402.7,335.5,403.4,335.8,404.1L335.8,404.1z"/>
		</g>
	</g>
	<g>
		<g>
			<path class="st2" d="M146.1,234c14.8-24.4,28.3-49.6,40.6-75.4c0.7-1.4-1.5-2.7-2.2-1.3c-12.2,25.8-25.8,51-40.6,75.4
				C143.1,234.1,145.3,235.4,146.1,234L146.1,234z"/>
		</g>
	</g>
	<g>
		<g>
			<path class="st2" d="M165.5,218.1c3.3-4.7,6.7-9.4,10-14.1c0.4-0.5,0.1-1.4-0.4-1.7c-0.6-0.4-1.3-0.1-1.7,0.4
				c-3.3,4.7-6.7,9.4-10,14.1c-0.4,0.5-0.1,1.4,0.4,1.7C164.4,218.9,165.1,218.6,165.5,218.1L165.5,218.1z"/>
		</g>
	</g>
	<g>
		<path class="st3" d="M106.1,395.3c0,0-1.4,27.4,0,30.9s36.7,24.5,37.9,20.9c1.2-3.7,2.5-25.4,0.8-28.9
			C143,414.6,106.3,391.5,106.1,395.3z"/>
	</g>
	<g>
		<path class="st3" d="M254.6,473.9c0.6-0.6,1.5-0.5,2,0.2c2.4,3.7,7.5,13,5.6,12.8c-2.3-0.2-3.4-1.3-3.4-1.3s-0.6,18.1-1.1,18.1
			c-1.6,0-5-2-5.4-3.6c-0.5-1.6,0-17.4,0-17.4s-3.4-1.1-3.2-2.3C249.2,479.6,252.7,475.8,254.6,473.9z"/>
	</g>
	<g>
		<path class="st3" d="M239.7,466.4c0.6-0.6,1.5-0.5,2,0.2c2.4,3.7,7.5,13,5.6,12.8c-2.3-0.2-3.4-1.3-3.4-1.3s-0.6,18.1-1.1,18.1
			c-1.6,0-5-2-5.4-3.6c-0.5-1.6,0-17.4,0-17.4s-3.4-1.1-3.2-2.3C234.4,472.1,237.9,468.3,239.7,466.4z"/>
	</g>
	<g>
		<path class="st3" d="M260.3,509.8c0,0-0.4,5-1.1,5.4c-0.7,0.5-25.3-15-25.3-15c-0.8-1.8-0.4-3.8-0.1-5.8
			C234.2,492.9,259.2,507.7,260.3,509.8z"/>
	</g>
	<g>
		<path class="st3" d="M224.2,476.4c0.5-0.3,3.2-14.9-8-23.3c-11.3-8.5-15.5,10.5-14.8,11.7C202,465.9,221.6,478,224.2,476.4z"/>
	</g>
	<g>
		<g>
			<path class="st3" d="M216.3,486.3c-1.2,1.4-3,0-3.9-1.1c-1-1.2-1.1-2.8-1-4.3c0.1-4.1,0.8-8.3,1.8-12.2c0.5-1.8-2.3-2.5-2.7-0.8
				c-0.7,2.6-1.1,5.2-1.4,7.8c-0.3,2.3-0.7,4.8-0.4,7.2c0.2,2.2,1.3,4,3,5.4c1.9,1.6,4.9,2,6.7-0.1
				C219.4,486.9,217.4,484.9,216.3,486.3L216.3,486.3z"/>
		</g>
	</g>
	<g>
		<g>
			<path class="st2" d="M368.5,185.2c3.5,12.8,9,25,16.4,36.1c0.9,1.3,3,0.1,2.2-1.3c-7.2-10.9-12.7-22.8-16.1-35.5
				C370.5,183,368.1,183.6,368.5,185.2L368.5,185.2z"/>
		</g>
	</g>
	<g>
		<g>
			<path class="st2" d="M257.7,394.6c21.8-13.5,43.9-26.7,65.9-40c2.2-1.3,4.4-2.6,6.5-3.9c1.4-0.8,0.1-3-1.3-2.2
				c-18.1,10.9-36.3,21.9-54.3,32.9c-6,3.7-12.1,7.4-18.1,11.1C255.1,393.3,256.3,395.4,257.7,394.6L257.7,394.6z"/>
		</g>
	</g>
	<g>
		<g>
			<path class="st2" d="M197.5,327.8c11.2-15.9,21.3-32.6,30.1-50c0.7-1.4-1.4-2.7-2.2-1.3c-8.9,17.4-18.9,34.1-30.1,50
				C194.4,327.9,196.6,329.1,197.5,327.8L197.5,327.8z"/>
		</g>
	</g>
</g>
<g>
	<g>
		<g>
			<path class="st3" d="M33.4,97.2c0.8-14,8-26.9,19.6-37.9c14.2-13.4,35-20.5,54.1-16.2c19,4.4,35,19.2,42.1,37.4
				c7.1,17.9,4.6,42.1-8.8,57.9c0,0,11,21.9,6.3,24.5c-2,1.9-17-7.9-21.9-12.7l0.1-0.1c-16.2,10.4-38.7,16-62.3,2.8
				C45,143.1,32,122.7,33.4,97.2z"/>
		</g>
	</g>
	<g>
		<path class="st4" d="M77.4,62.9c0,0,6.4,46.9,11.1,49.7c4.8,2.8,14.9,0.2,15.5-1.3s2.8-52.2,1-52.3C79.3,57.2,77.4,62.9,77.4,62.9
			z"/>
		<path class="st4" d="M108.3,126.4c2.7,6.5-0.4,13.9-6.8,16.6c-6.5,2.7-13.9-0.4-16.6-6.8c-2.7-6.5,0.4-13.9,6.8-16.6
			C98.2,116.9,105.6,120,108.3,126.4z"/>
	</g>
</g>
<g>
	<g>
		<g>
			<path class="st2" d="M206.4,83.9c-5.5-10.4-8.5-21.9-8.8-33.7c-0.6,0.4-1.2,0.7-1.9,1.1c14.1,6.6,28.2,13.2,42.3,19.8
				c0.5,0.3,1.4,0.2,1.7-0.4c9.7-22.7,19.4-45.3,29.1-68c-0.8-0.1-1.5-0.2-2.3-0.3c7.2,23.8,14.3,47.6,21.5,71.4
				c0.2,0.8,1.1,1.1,1.8,0.7c22-10,43-21.8,62.9-35.5c-0.6-0.5-1.2-0.9-1.8-1.4c-4.5,17.4-9,34.8-13.5,52.2c-0.3,1,0.6,1.7,1.5,1.5
				c6.5-1,12.6-2.8,18.7-5.3s12.2-4.2,18.7-5.3c1.6-0.3,0.9-2.6-0.7-2.4c-6.5,1-12.6,2.8-18.7,5.3s-12.2,4.2-18.7,5.3
				c0.5,0.5,1,1,1.5,1.5c4.5-17.4,9-34.8,13.5-52.2c0.3-1-0.9-2-1.8-1.4c-19.9,13.6-41,25.5-62.9,35.5c0.6,0.2,1.2,0.5,1.8,0.7
				c-7.2-23.8-14.3-47.6-21.5-71.4c-0.3-0.9-1.8-1.3-2.3-0.3c-9.7,22.7-19.4,45.3-29.1,68c0.6-0.1,1.1-0.3,1.7-0.4
				c-14.1-6.6-28.2-13.2-42.3-19.8c-0.8-0.4-1.9,0.1-1.9,1.1c0.3,12.2,3.4,24.1,9.1,34.9C205,86.6,207.1,85.3,206.4,83.9L206.4,83.9
				z"/>
		</g>
	</g>
	<g>
		<g>
			<path class="st2" d="M387.3,75.1c-0.4-0.1-0.8-0.1-1.1-0.2c-0.2-0.1-0.3-0.1-0.5,0c-0.2,0-0.3,0.1-0.5,0.1
				c-0.1,0.1-0.3,0.2-0.3,0.3c-0.1,0.1-0.2,0.3-0.2,0.4s0,0.2,0,0.3c0,0.2,0.1,0.4,0.2,0.6c0.1,0.1,0.1,0.2,0.2,0.3
				c0.2,0.2,0.3,0.3,0.5,0.3c0.4,0.1,0.8,0.1,1.1,0.2c0.2,0.1,0.3,0.1,0.5,0c0.2,0,0.3-0.1,0.5-0.1c0.1-0.1,0.3-0.2,0.3-0.3
				c0.1-0.1,0.2-0.3,0.2-0.4s0-0.2,0-0.3c0-0.2-0.1-0.4-0.2-0.6c-0.1-0.1-0.1-0.2-0.2-0.3C387.7,75.2,387.5,75.1,387.3,75.1
				L387.3,75.1z"/>
		</g>
	</g>
</g>
</svg>
